%
M48
M72
T01C0.0236
T02C0.0320
T03C0.0354
T04C0.0400
T05C0.0590
T06C0.0730
T07C0.1570
%
T01
X48441Y29187
X63941Y35687
X65941Y35687
X65941Y28687
X64441Y28687
X63441Y42687
X65941Y42687
X65941Y49687
X62941Y49687
X61191Y54687
X61191Y55687
X60441Y56937
X59941Y57187
X59441Y57437
X59191Y55687
X55941Y55687
X55441Y55437
X54941Y55187
X57191Y58437
X56691Y58937
X57941Y60687
X58941Y62687
X60941Y60187
X64691Y61937
X55191Y62687
X54691Y61937
X53691Y60937
X52691Y60937
X53941Y59437
X51191Y57687
X49941Y62437
X48691Y62437
X44691Y62937
X53191Y62937
T02
X7698Y15670
X10417Y16938
X11325Y20328
X10057Y23047
X17057Y26297
X18325Y23578
X22581Y19053
X25300Y20321
X18534Y17122
X15815Y15854
X13550Y10321
X10831Y9053
X35691Y24687
X38691Y24687
X43191Y25187
X46191Y25187
X50691Y24687
X53691Y24687
X58191Y23187
X61191Y23187
X65691Y23187
X68691Y23187
X67691Y30687
X70691Y30687
X70691Y38187
X67691Y38187
X61191Y38187
X58191Y38187
X53691Y39687
X50691Y39687
X46191Y40187
X43191Y40187
X38691Y39687
X35691Y39687
X31191Y38937
X28191Y38937
X23691Y33937
X20691Y33937
X28191Y31437
X31191Y31437
X35691Y32187
X38691Y32187
X43191Y32687
X46191Y32687
X50691Y32187
X53691Y32187
X58191Y30687
X61191Y30687
X61191Y45687
X58191Y45687
X53691Y47187
X50691Y47187
X46191Y47687
X43191Y47687
X38691Y47187
X35691Y47187
X31191Y46437
X28191Y46437
X23691Y45187
X20691Y45187
X20691Y53937
X23691Y53937
X28191Y53937
X31191Y53937
X35691Y54687
X38691Y54687
X43191Y55187
X46191Y55187
X50691Y54687
X53691Y54687
X58191Y53187
X61191Y53187
X67691Y53187
X70691Y53187
X70691Y45687
X67691Y45687
T03
X43856Y63160
X41061Y63160
T04
X70191Y55937
X71191Y55937
X72191Y55937
X63941Y59437
X62941Y59437
X62941Y60437
X63941Y60437
X63941Y61437
X62941Y61437
X62941Y62437
X63941Y62437
X52441Y61937
X51441Y61937
X51441Y62937
X52441Y62937
X50441Y62937
X50441Y61937
T05
X5570Y20305
X5600Y21422
X7413Y22267
X8289Y21572
X12367Y23474
X12397Y24591
X14210Y25436
X15086Y24741
X20191Y29183
X21191Y28683
X20191Y31183
X21191Y31683
X28191Y29187
X28691Y30187
X30691Y30187
X31191Y29187
X35691Y29937
X36191Y30937
X38191Y30937
X38691Y29937
X43191Y30437
X43691Y31437
X45691Y31437
X46191Y30437
X50691Y29937
X51191Y30937
X53191Y30937
X53691Y29937
X58191Y28437
X58691Y29437
X60691Y29437
X61191Y28437
X67691Y28437
X68191Y29437
X70191Y29437
X70691Y28437
X68191Y21937
X68691Y20937
X66191Y21937
X65691Y20937
X61191Y20937
X60691Y21937
X58691Y21937
X58191Y20937
X53691Y22437
X53191Y23437
X51191Y23437
X50691Y22437
X46191Y22937
X45691Y23937
X43691Y23937
X43191Y22937
X38691Y22437
X38191Y23437
X36191Y23437
X35691Y22437
X25427Y14393
X24310Y14424
X23464Y16236
X24159Y17112
X17362Y13942
X16667Y13066
X17513Y11254
X18630Y11223
X14628Y7977
X13752Y8672
X11939Y7827
X11909Y6710
X8739Y13508
X8769Y14625
X10582Y15470
X11458Y14775
X28191Y36687
X28691Y37687
X30691Y37687
X31191Y36687
X35691Y37437
X36191Y38437
X38191Y38437
X38691Y37437
X43191Y37937
X43691Y38937
X45691Y38937
X46191Y37937
X50691Y37437
X51191Y38437
X53191Y38437
X53691Y37437
X58191Y35937
X58691Y36937
X60691Y36937
X61191Y35937
X67691Y35937
X68191Y36937
X70191Y36937
X70691Y35937
X70691Y43437
X70191Y44437
X68191Y44437
X67691Y43437
X61191Y43437
X60691Y44437
X58691Y44437
X58191Y43437
X53691Y44937
X53191Y45937
X51191Y45937
X50691Y44937
X46191Y45437
X45691Y46437
X43691Y46437
X43191Y45437
X38691Y44937
X38191Y45937
X36191Y45937
X35691Y44937
X31191Y44187
X30691Y45187
X28691Y45187
X28191Y44187
X21191Y42933
X20191Y42433
X20191Y40433
X21191Y39933
X20691Y51687
X21191Y52687
X23191Y52687
X23691Y51687
X28191Y51687
X28691Y52687
X30691Y52687
X31191Y51687
X35691Y52437
X36191Y53437
X38191Y53437
X38691Y52437
X43191Y52937
X43691Y53937
X45691Y53937
X46191Y52937
X50691Y52437
X51191Y53437
X53191Y53437
X53691Y52437
X58191Y50937
X58691Y51937
X60691Y51937
X61191Y50937
X67691Y50937
X68191Y51937
X70191Y51937
X70691Y50937
T06
X39591Y59937
X36691Y59937
X22691Y59937
X19791Y59937
T07
X7352Y20032
X14149Y23201
X22191Y30183
X29691Y28187
X37191Y28937
X44691Y29437
X52191Y28937
X59691Y27437
X52191Y21437
X59691Y19937
X67191Y19937
X69191Y27437
X69191Y34937
X69191Y42437
X69191Y49937
X59691Y49937
X52191Y51437
X44691Y51937
X37191Y51437
X29691Y50687
X22191Y50687
X29691Y43187
X37191Y43937
X44691Y44437
X52191Y43937
X59691Y42437
X52191Y36437
X59691Y34937
X44691Y36937
X37191Y36437
X29691Y35687
X22191Y41433
X37191Y21437
X44691Y21937
X25700Y16175
X18903Y13005
X13691Y6437
X10521Y13235
M30
