G75*
G70*
%OFA0B0*%
%FSLAX24Y24*%
%IPPOS*%
%LPD*%
%AMOC8*
5,1,8,0,0,1.08239X$1,22.5*
%
%ADD10C,0.0100*%
%ADD11C,0.0180*%
%ADD12C,0.1130*%
%ADD13C,0.0000*%
%ADD14C,0.0010*%
%ADD15C,0.0080*%
D10*
X011301Y002388D02*
X002853Y020446D01*
X002827Y020506D01*
X002804Y020569D01*
X002785Y020632D01*
X002769Y020696D01*
X002757Y020761D01*
X002748Y020827D01*
X002743Y020893D01*
X002742Y020959D01*
X002745Y021026D01*
X002751Y021092D01*
X002761Y021157D01*
X002775Y021222D01*
X002792Y021286D01*
X002813Y021349D01*
X002837Y021410D01*
X002865Y021470D01*
X002896Y021529D01*
X002930Y021586D01*
X002968Y021640D01*
X003008Y021693D01*
X003051Y021743D01*
X003098Y021791D01*
X003146Y021836D01*
X003197Y021878D01*
X003251Y021917D01*
X003306Y021953D01*
X003364Y021986D01*
X003423Y022016D01*
X003422Y022016D02*
X016965Y028348D01*
X016966Y028347D02*
X017049Y028389D01*
X017130Y028434D01*
X017209Y028483D01*
X017286Y028536D01*
X017360Y028592D01*
X017431Y028652D01*
X017500Y028715D01*
X017565Y028781D01*
X017627Y028850D01*
X017686Y028922D01*
X017741Y028997D01*
X017793Y029074D01*
X017841Y029153D01*
X017885Y029235D01*
X017926Y029319D01*
X017962Y029405D01*
X017994Y029492D01*
X018022Y029580D01*
X018046Y029670D01*
X018066Y029761D01*
X018081Y029853D01*
X018092Y029945D01*
X018099Y030038D01*
X018101Y030131D01*
X018100Y030131D02*
X018100Y061870D01*
X018102Y061964D01*
X018109Y062057D01*
X018120Y062150D01*
X018136Y062243D01*
X018156Y062334D01*
X018180Y062425D01*
X018208Y062514D01*
X018241Y062602D01*
X018278Y062688D01*
X018319Y062772D01*
X018364Y062855D01*
X018413Y062935D01*
X018465Y063012D01*
X018521Y063087D01*
X018581Y063159D01*
X018644Y063229D01*
X018710Y063295D01*
X018780Y063358D01*
X018852Y063418D01*
X018927Y063474D01*
X019004Y063526D01*
X019084Y063575D01*
X019167Y063620D01*
X019251Y063661D01*
X019337Y063698D01*
X019425Y063731D01*
X019514Y063759D01*
X019605Y063783D01*
X019696Y063803D01*
X019789Y063819D01*
X019882Y063830D01*
X019975Y063837D01*
X020069Y063839D01*
X072825Y063839D01*
X072919Y063837D01*
X073012Y063830D01*
X073105Y063819D01*
X073198Y063803D01*
X073289Y063783D01*
X073380Y063759D01*
X073469Y063731D01*
X073557Y063698D01*
X073643Y063661D01*
X073727Y063620D01*
X073809Y063575D01*
X073890Y063526D01*
X073967Y063474D01*
X074042Y063418D01*
X074114Y063358D01*
X074184Y063295D01*
X074250Y063229D01*
X074313Y063159D01*
X074373Y063087D01*
X074429Y063012D01*
X074481Y062935D01*
X074530Y062854D01*
X074575Y062772D01*
X074616Y062688D01*
X074653Y062602D01*
X074686Y062514D01*
X074714Y062425D01*
X074738Y062334D01*
X074758Y062243D01*
X074774Y062150D01*
X074785Y062057D01*
X074792Y061964D01*
X074794Y061870D01*
X074793Y061870D02*
X074793Y018169D01*
X074794Y018169D02*
X074792Y018075D01*
X074785Y017982D01*
X074774Y017889D01*
X074758Y017796D01*
X074738Y017705D01*
X074714Y017614D01*
X074686Y017525D01*
X074653Y017437D01*
X074616Y017351D01*
X074575Y017267D01*
X074530Y017185D01*
X074481Y017104D01*
X074429Y017027D01*
X074373Y016952D01*
X074313Y016880D01*
X074250Y016810D01*
X074184Y016744D01*
X074114Y016681D01*
X074042Y016621D01*
X073967Y016565D01*
X073890Y016513D01*
X073810Y016464D01*
X073727Y016419D01*
X073643Y016378D01*
X073557Y016341D01*
X073469Y016308D01*
X073380Y016280D01*
X073289Y016256D01*
X073198Y016236D01*
X073105Y016220D01*
X073012Y016209D01*
X072919Y016202D01*
X072825Y016200D01*
X072825Y016201D02*
X044127Y016201D01*
X043295Y016016D02*
X012870Y001818D01*
X012807Y001791D01*
X012743Y001767D01*
X012677Y001747D01*
X012610Y001731D01*
X012543Y001720D01*
X012475Y001712D01*
X012406Y001708D01*
X012337Y001707D01*
X012269Y001711D01*
X012201Y001719D01*
X012133Y001731D01*
X012066Y001747D01*
X012000Y001767D01*
X011936Y001790D01*
X011873Y001817D01*
X011811Y001848D01*
X011752Y001882D01*
X011695Y001920D01*
X011639Y001961D01*
X011587Y002005D01*
X011537Y002052D01*
X011490Y002102D01*
X011445Y002154D01*
X011404Y002209D01*
X011367Y002267D01*
X011332Y002326D01*
X011301Y002387D01*
X043294Y016016D02*
X043382Y016055D01*
X043471Y016089D01*
X043562Y016118D01*
X043654Y016143D01*
X043747Y016164D01*
X043841Y016180D01*
X043936Y016192D01*
X044031Y016199D01*
X044127Y016201D01*
D11*
X023851Y037027D02*
X023304Y037027D01*
X022930Y037027D02*
X022383Y037027D01*
X022009Y037027D02*
X022009Y037848D01*
X021462Y037848D01*
X021088Y037848D02*
X020541Y037848D01*
X020815Y037848D02*
X020815Y037027D01*
X021736Y037437D02*
X022009Y037437D01*
X022383Y037848D02*
X022930Y037848D01*
X022930Y037027D01*
X022930Y037437D02*
X022656Y037437D01*
X023851Y037848D02*
X023851Y037027D01*
D12*
X047193Y057252D02*
X050642Y060701D01*
X052993Y059839D02*
X053855Y060701D01*
X055580Y060701D01*
X056442Y059839D01*
X056442Y058114D01*
X055580Y057252D01*
X053855Y057252D01*
X052993Y058114D01*
X052993Y059839D01*
X050642Y057252D02*
X047193Y060701D01*
X058793Y060701D02*
X061380Y060701D01*
X062242Y059839D01*
X062242Y058114D01*
X061380Y057252D01*
X058793Y057252D01*
X058793Y062426D01*
X064593Y059839D02*
X064593Y058977D01*
X068042Y058977D01*
X068042Y059839D02*
X067180Y060701D01*
X065455Y060701D01*
X064593Y059839D01*
X065455Y057252D02*
X067180Y057252D01*
X068042Y058114D01*
X068042Y059839D01*
X070289Y060701D02*
X071151Y060701D01*
X072876Y058977D01*
X072876Y060701D02*
X072876Y057252D01*
D13*
X043679Y063160D02*
X043681Y063186D01*
X043687Y063212D01*
X043697Y063237D01*
X043710Y063260D01*
X043726Y063280D01*
X043746Y063298D01*
X043768Y063313D01*
X043791Y063325D01*
X043817Y063333D01*
X043843Y063337D01*
X043869Y063337D01*
X043895Y063333D01*
X043921Y063325D01*
X043945Y063313D01*
X043966Y063298D01*
X043986Y063280D01*
X044002Y063260D01*
X044015Y063237D01*
X044025Y063212D01*
X044031Y063186D01*
X044033Y063160D01*
X044031Y063134D01*
X044025Y063108D01*
X044015Y063083D01*
X044002Y063060D01*
X043986Y063040D01*
X043966Y063022D01*
X043944Y063007D01*
X043921Y062995D01*
X043895Y062987D01*
X043869Y062983D01*
X043843Y062983D01*
X043817Y062987D01*
X043791Y062995D01*
X043767Y063007D01*
X043746Y063022D01*
X043726Y063040D01*
X043710Y063060D01*
X043697Y063083D01*
X043687Y063108D01*
X043681Y063134D01*
X043679Y063160D01*
X040884Y063160D02*
X040886Y063186D01*
X040892Y063212D01*
X040902Y063237D01*
X040915Y063260D01*
X040931Y063280D01*
X040951Y063298D01*
X040973Y063313D01*
X040996Y063325D01*
X041022Y063333D01*
X041048Y063337D01*
X041074Y063337D01*
X041100Y063333D01*
X041126Y063325D01*
X041150Y063313D01*
X041171Y063298D01*
X041191Y063280D01*
X041207Y063260D01*
X041220Y063237D01*
X041230Y063212D01*
X041236Y063186D01*
X041238Y063160D01*
X041236Y063134D01*
X041230Y063108D01*
X041220Y063083D01*
X041207Y063060D01*
X041191Y063040D01*
X041171Y063022D01*
X041149Y063007D01*
X041126Y062995D01*
X041100Y062987D01*
X041074Y062983D01*
X041048Y062983D01*
X041022Y062987D01*
X040996Y062995D01*
X040972Y063007D01*
X040951Y063022D01*
X040931Y063040D01*
X040915Y063060D01*
X040902Y063083D01*
X040892Y063108D01*
X040886Y063134D01*
X040884Y063160D01*
D14*
X048476Y063331D02*
X048576Y063331D01*
X048476Y063431D01*
X048476Y063456D01*
X048501Y063481D01*
X048551Y063481D01*
X048576Y063456D01*
X048623Y063456D02*
X048648Y063481D01*
X048723Y063481D01*
X048723Y063331D01*
X048648Y063331D01*
X048623Y063356D01*
X048623Y063456D01*
X048771Y063481D02*
X048871Y063481D01*
X048871Y063331D01*
X048771Y063331D01*
X048821Y063406D02*
X048871Y063406D01*
X048918Y063331D02*
X049018Y063331D01*
X049018Y063481D01*
D15*
X049067Y063169D02*
X049618Y063169D01*
X049618Y062382D01*
X049067Y062382D01*
X048791Y062540D02*
X048791Y063012D01*
X048555Y062776D01*
X048791Y062540D01*
X048555Y062500D02*
X048555Y062776D01*
X048555Y063051D01*
X048279Y063169D02*
X047728Y063169D01*
X047728Y062382D01*
X048279Y062382D01*
M02*
