G75*
G70*
%OFA0B0*%
%FSLAX24Y24*%
%IPPOS*%
%LPD*%
%AMOC8*
5,1,8,0,0,1.08239X$1,22.5*
%
%ADD10C,0.0100*%
%ADD11R,0.0591X0.0197*%
%ADD12R,0.0197X0.0591*%
%ADD13R,0.2165X0.0591*%
%ADD14R,0.0472X0.0315*%
%ADD15R,0.0236X0.0315*%
%ADD16R,0.0866X0.0630*%
%ADD17R,0.0472X0.0984*%
%ADD18C,0.0000*%
%ADD19R,0.0512X0.0591*%
%ADD20R,0.0591X0.0512*%
%ADD21R,0.0315X0.0472*%
%ADD22R,0.0472X0.0551*%
D10*
X011301Y002388D02*
X002853Y020446D01*
X002827Y020506D01*
X002804Y020569D01*
X002785Y020632D01*
X002769Y020696D01*
X002757Y020761D01*
X002748Y020827D01*
X002743Y020893D01*
X002742Y020959D01*
X002745Y021026D01*
X002751Y021092D01*
X002761Y021157D01*
X002775Y021222D01*
X002792Y021286D01*
X002813Y021349D01*
X002837Y021410D01*
X002865Y021470D01*
X002896Y021529D01*
X002930Y021586D01*
X002968Y021640D01*
X003008Y021693D01*
X003051Y021743D01*
X003098Y021791D01*
X003146Y021836D01*
X003197Y021878D01*
X003251Y021917D01*
X003306Y021953D01*
X003364Y021986D01*
X003423Y022016D01*
X003422Y022016D02*
X016965Y028348D01*
X016966Y028347D02*
X017049Y028389D01*
X017130Y028434D01*
X017209Y028483D01*
X017286Y028536D01*
X017360Y028592D01*
X017431Y028652D01*
X017500Y028715D01*
X017565Y028781D01*
X017627Y028850D01*
X017686Y028922D01*
X017741Y028997D01*
X017793Y029074D01*
X017841Y029153D01*
X017885Y029235D01*
X017926Y029319D01*
X017962Y029405D01*
X017994Y029492D01*
X018022Y029580D01*
X018046Y029670D01*
X018066Y029761D01*
X018081Y029853D01*
X018092Y029945D01*
X018099Y030038D01*
X018101Y030131D01*
X018100Y030131D02*
X018100Y061870D01*
X018102Y061964D01*
X018109Y062057D01*
X018120Y062150D01*
X018136Y062243D01*
X018156Y062334D01*
X018180Y062425D01*
X018208Y062514D01*
X018241Y062602D01*
X018278Y062688D01*
X018319Y062772D01*
X018364Y062855D01*
X018413Y062935D01*
X018465Y063012D01*
X018521Y063087D01*
X018581Y063159D01*
X018644Y063229D01*
X018710Y063295D01*
X018780Y063358D01*
X018852Y063418D01*
X018927Y063474D01*
X019004Y063526D01*
X019084Y063575D01*
X019167Y063620D01*
X019251Y063661D01*
X019337Y063698D01*
X019425Y063731D01*
X019514Y063759D01*
X019605Y063783D01*
X019696Y063803D01*
X019789Y063819D01*
X019882Y063830D01*
X019975Y063837D01*
X020069Y063839D01*
X072825Y063839D01*
X072919Y063837D01*
X073012Y063830D01*
X073105Y063819D01*
X073198Y063803D01*
X073289Y063783D01*
X073380Y063759D01*
X073469Y063731D01*
X073557Y063698D01*
X073643Y063661D01*
X073727Y063620D01*
X073809Y063575D01*
X073890Y063526D01*
X073967Y063474D01*
X074042Y063418D01*
X074114Y063358D01*
X074184Y063295D01*
X074250Y063229D01*
X074313Y063159D01*
X074373Y063087D01*
X074429Y063012D01*
X074481Y062935D01*
X074530Y062854D01*
X074575Y062772D01*
X074616Y062688D01*
X074653Y062602D01*
X074686Y062514D01*
X074714Y062425D01*
X074738Y062334D01*
X074758Y062243D01*
X074774Y062150D01*
X074785Y062057D01*
X074792Y061964D01*
X074794Y061870D01*
X074793Y061870D02*
X074793Y018169D01*
X074794Y018169D02*
X074792Y018075D01*
X074785Y017982D01*
X074774Y017889D01*
X074758Y017796D01*
X074738Y017705D01*
X074714Y017614D01*
X074686Y017525D01*
X074653Y017437D01*
X074616Y017351D01*
X074575Y017267D01*
X074530Y017185D01*
X074481Y017104D01*
X074429Y017027D01*
X074373Y016952D01*
X074313Y016880D01*
X074250Y016810D01*
X074184Y016744D01*
X074114Y016681D01*
X074042Y016621D01*
X073967Y016565D01*
X073890Y016513D01*
X073810Y016464D01*
X073727Y016419D01*
X073643Y016378D01*
X073557Y016341D01*
X073469Y016308D01*
X073380Y016280D01*
X073289Y016256D01*
X073198Y016236D01*
X073105Y016220D01*
X073012Y016209D01*
X072919Y016202D01*
X072825Y016200D01*
X072825Y016201D02*
X044127Y016201D01*
X043295Y016016D02*
X012870Y001818D01*
X012807Y001791D01*
X012743Y001767D01*
X012677Y001747D01*
X012610Y001731D01*
X012543Y001720D01*
X012475Y001712D01*
X012406Y001708D01*
X012337Y001707D01*
X012269Y001711D01*
X012201Y001719D01*
X012133Y001731D01*
X012066Y001747D01*
X012000Y001767D01*
X011936Y001790D01*
X011873Y001817D01*
X011811Y001848D01*
X011752Y001882D01*
X011695Y001920D01*
X011639Y001961D01*
X011587Y002005D01*
X011537Y002052D01*
X011490Y002102D01*
X011445Y002154D01*
X011404Y002209D01*
X011367Y002267D01*
X011332Y002326D01*
X011301Y002387D01*
X043294Y016016D02*
X043382Y016055D01*
X043471Y016089D01*
X043562Y016118D01*
X043654Y016143D01*
X043747Y016164D01*
X043841Y016180D01*
X043936Y016192D01*
X044031Y016199D01*
X044127Y016201D01*
D11*
G36*
X057831Y056932D02*
X057415Y057348D01*
X057553Y057486D01*
X057969Y057070D01*
X057831Y056932D01*
G37*
G36*
X058053Y057155D02*
X057637Y057571D01*
X057775Y057709D01*
X058191Y057293D01*
X058053Y057155D01*
G37*
G36*
X058276Y057377D02*
X057860Y057793D01*
X057998Y057931D01*
X058414Y057515D01*
X058276Y057377D01*
G37*
G36*
X058499Y057600D02*
X058083Y058016D01*
X058221Y058154D01*
X058637Y057738D01*
X058499Y057600D01*
G37*
G36*
X058722Y057823D02*
X058306Y058239D01*
X058444Y058377D01*
X058860Y057961D01*
X058722Y057823D01*
G37*
G36*
X058944Y058045D02*
X058528Y058461D01*
X058666Y058599D01*
X059082Y058183D01*
X058944Y058045D01*
G37*
G36*
X059167Y058268D02*
X058751Y058684D01*
X058889Y058822D01*
X059305Y058406D01*
X059167Y058268D01*
G37*
G36*
X059390Y058491D02*
X058974Y058907D01*
X059112Y059045D01*
X059528Y058629D01*
X059390Y058491D01*
G37*
G36*
X059612Y058714D02*
X059196Y059130D01*
X059334Y059268D01*
X059750Y058852D01*
X059612Y058714D01*
G37*
G36*
X059835Y058936D02*
X059419Y059352D01*
X059557Y059490D01*
X059973Y059074D01*
X059835Y058936D01*
G37*
G36*
X060058Y059159D02*
X059642Y059575D01*
X059780Y059713D01*
X060196Y059297D01*
X060058Y059159D01*
G37*
G36*
X056829Y062388D02*
X056413Y062804D01*
X056551Y062942D01*
X056967Y062526D01*
X056829Y062388D01*
G37*
G36*
X056606Y062166D02*
X056190Y062582D01*
X056328Y062720D01*
X056744Y062304D01*
X056606Y062166D01*
G37*
G36*
X056383Y061943D02*
X055967Y062359D01*
X056105Y062497D01*
X056521Y062081D01*
X056383Y061943D01*
G37*
G36*
X056160Y061720D02*
X055744Y062136D01*
X055882Y062274D01*
X056298Y061858D01*
X056160Y061720D01*
G37*
G36*
X055938Y061498D02*
X055522Y061914D01*
X055660Y062052D01*
X056076Y061636D01*
X055938Y061498D01*
G37*
G36*
X055715Y061275D02*
X055299Y061691D01*
X055437Y061829D01*
X055853Y061413D01*
X055715Y061275D01*
G37*
G36*
X055492Y061052D02*
X055076Y061468D01*
X055214Y061606D01*
X055630Y061190D01*
X055492Y061052D01*
G37*
G36*
X055270Y060829D02*
X054854Y061245D01*
X054992Y061383D01*
X055408Y060967D01*
X055270Y060829D01*
G37*
G36*
X055047Y060607D02*
X054631Y061023D01*
X054769Y061161D01*
X055185Y060745D01*
X055047Y060607D01*
G37*
G36*
X054824Y060384D02*
X054408Y060800D01*
X054546Y060938D01*
X054962Y060522D01*
X054824Y060384D01*
G37*
G36*
X054601Y060161D02*
X054185Y060577D01*
X054323Y060715D01*
X054739Y060299D01*
X054601Y060161D01*
G37*
D12*
G36*
X054323Y059159D02*
X054185Y059297D01*
X054601Y059713D01*
X054739Y059575D01*
X054323Y059159D01*
G37*
G36*
X054546Y058936D02*
X054408Y059074D01*
X054824Y059490D01*
X054962Y059352D01*
X054546Y058936D01*
G37*
G36*
X054769Y058714D02*
X054631Y058852D01*
X055047Y059268D01*
X055185Y059130D01*
X054769Y058714D01*
G37*
G36*
X054992Y058491D02*
X054854Y058629D01*
X055270Y059045D01*
X055408Y058907D01*
X054992Y058491D01*
G37*
G36*
X055214Y058268D02*
X055076Y058406D01*
X055492Y058822D01*
X055630Y058684D01*
X055214Y058268D01*
G37*
G36*
X055437Y058045D02*
X055299Y058183D01*
X055715Y058599D01*
X055853Y058461D01*
X055437Y058045D01*
G37*
G36*
X055660Y057823D02*
X055522Y057961D01*
X055938Y058377D01*
X056076Y058239D01*
X055660Y057823D01*
G37*
G36*
X055882Y057600D02*
X055744Y057738D01*
X056160Y058154D01*
X056298Y058016D01*
X055882Y057600D01*
G37*
G36*
X056105Y057377D02*
X055967Y057515D01*
X056383Y057931D01*
X056521Y057793D01*
X056105Y057377D01*
G37*
G36*
X056328Y057155D02*
X056190Y057293D01*
X056606Y057709D01*
X056744Y057571D01*
X056328Y057155D01*
G37*
G36*
X056551Y056932D02*
X056413Y057070D01*
X056829Y057486D01*
X056967Y057348D01*
X056551Y056932D01*
G37*
G36*
X059780Y060161D02*
X059642Y060299D01*
X060058Y060715D01*
X060196Y060577D01*
X059780Y060161D01*
G37*
G36*
X059557Y060384D02*
X059419Y060522D01*
X059835Y060938D01*
X059973Y060800D01*
X059557Y060384D01*
G37*
G36*
X059334Y060607D02*
X059196Y060745D01*
X059612Y061161D01*
X059750Y061023D01*
X059334Y060607D01*
G37*
G36*
X059112Y060829D02*
X058974Y060967D01*
X059390Y061383D01*
X059528Y061245D01*
X059112Y060829D01*
G37*
G36*
X058889Y061052D02*
X058751Y061190D01*
X059167Y061606D01*
X059305Y061468D01*
X058889Y061052D01*
G37*
G36*
X058666Y061275D02*
X058528Y061413D01*
X058944Y061829D01*
X059082Y061691D01*
X058666Y061275D01*
G37*
G36*
X058444Y061498D02*
X058306Y061636D01*
X058722Y062052D01*
X058860Y061914D01*
X058444Y061498D01*
G37*
G36*
X058221Y061720D02*
X058083Y061858D01*
X058499Y062274D01*
X058637Y062136D01*
X058221Y061720D01*
G37*
G36*
X057998Y061943D02*
X057860Y062081D01*
X058276Y062497D01*
X058414Y062359D01*
X057998Y061943D01*
G37*
G36*
X057775Y062166D02*
X057637Y062304D01*
X058053Y062720D01*
X058191Y062582D01*
X057775Y062166D01*
G37*
G36*
X057553Y062388D02*
X057415Y062526D01*
X057831Y062942D01*
X057969Y062804D01*
X057553Y062388D01*
G37*
D13*
X053134Y056937D03*
X049748Y056937D03*
D14*
X048441Y056291D03*
X048441Y055583D03*
X043691Y057333D03*
X043691Y058041D03*
X054441Y056291D03*
X054441Y055583D03*
D15*
X043315Y059195D03*
X042941Y059195D03*
X042567Y059195D03*
X042567Y060179D03*
X042941Y060179D03*
X043315Y060179D03*
D16*
X044191Y060238D03*
X044191Y059136D03*
D17*
X043443Y062077D03*
X042458Y062077D03*
X041474Y062077D03*
D18*
X040884Y063160D02*
X040886Y063186D01*
X040892Y063212D01*
X040902Y063237D01*
X040915Y063260D01*
X040931Y063280D01*
X040951Y063298D01*
X040973Y063313D01*
X040996Y063325D01*
X041022Y063333D01*
X041048Y063337D01*
X041074Y063337D01*
X041100Y063333D01*
X041126Y063325D01*
X041150Y063313D01*
X041171Y063298D01*
X041191Y063280D01*
X041207Y063260D01*
X041220Y063237D01*
X041230Y063212D01*
X041236Y063186D01*
X041238Y063160D01*
X041236Y063134D01*
X041230Y063108D01*
X041220Y063083D01*
X041207Y063060D01*
X041191Y063040D01*
X041171Y063022D01*
X041149Y063007D01*
X041126Y062995D01*
X041100Y062987D01*
X041074Y062983D01*
X041048Y062983D01*
X041022Y062987D01*
X040996Y062995D01*
X040972Y063007D01*
X040951Y063022D01*
X040931Y063040D01*
X040915Y063060D01*
X040902Y063083D01*
X040892Y063108D01*
X040886Y063134D01*
X040884Y063160D01*
X043679Y063160D02*
X043681Y063186D01*
X043687Y063212D01*
X043697Y063237D01*
X043710Y063260D01*
X043726Y063280D01*
X043746Y063298D01*
X043768Y063313D01*
X043791Y063325D01*
X043817Y063333D01*
X043843Y063337D01*
X043869Y063337D01*
X043895Y063333D01*
X043921Y063325D01*
X043945Y063313D01*
X043966Y063298D01*
X043986Y063280D01*
X044002Y063260D01*
X044015Y063237D01*
X044025Y063212D01*
X044031Y063186D01*
X044033Y063160D01*
X044031Y063134D01*
X044025Y063108D01*
X044015Y063083D01*
X044002Y063060D01*
X043986Y063040D01*
X043966Y063022D01*
X043944Y063007D01*
X043921Y062995D01*
X043895Y062987D01*
X043869Y062983D01*
X043843Y062983D01*
X043817Y062987D01*
X043791Y062995D01*
X043767Y063007D01*
X043746Y063022D01*
X043726Y063040D01*
X043710Y063060D01*
X043697Y063083D01*
X043687Y063108D01*
X043681Y063134D01*
X043679Y063160D01*
D19*
X048356Y061687D03*
X049025Y061687D03*
X042775Y058437D03*
X042106Y058437D03*
X042025Y055187D03*
X041356Y055187D03*
X034525Y054687D03*
X033856Y054687D03*
X027025Y053937D03*
X026356Y053937D03*
X024275Y055187D03*
X023606Y055187D03*
X048856Y054687D03*
X049525Y054687D03*
X056356Y053187D03*
X057025Y053187D03*
D20*
X067691Y054103D03*
X067691Y054772D03*
X041691Y059353D03*
X041691Y060022D03*
X019191Y056272D03*
X019191Y055603D03*
D21*
X043299Y061150D03*
X044008Y061150D03*
D22*
X048100Y062740D03*
X049281Y062740D03*
M02*
