G75*
G70*
%OFA0B0*%
%FSLAX24Y24*%
%IPPOS*%
%LPD*%
%AMOC8*
5,1,8,0,0,1.08239X$1,22.5*
%
%ADD10C,0.0100*%
%ADD11C,0.0180*%
%ADD12C,0.0945*%
%ADD13C,0.2030*%
%ADD14C,0.0540*%
%ADD15C,0.1155*%
%ADD16R,0.0651X0.0257*%
%ADD17R,0.0257X0.0651*%
%ADD18R,0.2225X0.0651*%
%ADD19R,0.0532X0.0375*%
%ADD20OC8,0.0660*%
%ADD21R,0.0296X0.0375*%
%ADD22R,0.0926X0.0690*%
%ADD23R,0.0532X0.1044*%
%ADD24C,0.0000*%
%ADD25C,0.0414*%
%ADD26C,0.0660*%
%ADD27R,0.0572X0.0651*%
%ADD28R,0.0651X0.0572*%
%ADD29R,0.0375X0.0532*%
%ADD30R,0.0532X0.0611*%
%ADD31C,0.0660*%
%ADD32C,0.0651*%
%ADD33C,0.0436*%
D10*
X011301Y002388D02*
X002853Y020446D01*
X002827Y020506D01*
X002804Y020569D01*
X002785Y020632D01*
X002769Y020696D01*
X002757Y020761D01*
X002748Y020827D01*
X002743Y020893D01*
X002742Y020959D01*
X002745Y021026D01*
X002751Y021092D01*
X002761Y021157D01*
X002775Y021222D01*
X002792Y021286D01*
X002813Y021349D01*
X002837Y021410D01*
X002865Y021470D01*
X002896Y021529D01*
X002930Y021586D01*
X002968Y021640D01*
X003008Y021693D01*
X003051Y021743D01*
X003098Y021791D01*
X003146Y021836D01*
X003197Y021878D01*
X003251Y021917D01*
X003306Y021953D01*
X003364Y021986D01*
X003423Y022016D01*
X003422Y022016D02*
X016965Y028348D01*
X016966Y028347D02*
X017049Y028389D01*
X017130Y028434D01*
X017209Y028483D01*
X017286Y028536D01*
X017360Y028592D01*
X017431Y028652D01*
X017500Y028715D01*
X017565Y028781D01*
X017627Y028850D01*
X017686Y028922D01*
X017741Y028997D01*
X017793Y029074D01*
X017841Y029153D01*
X017885Y029235D01*
X017926Y029319D01*
X017962Y029405D01*
X017994Y029492D01*
X018022Y029580D01*
X018046Y029670D01*
X018066Y029761D01*
X018081Y029853D01*
X018092Y029945D01*
X018099Y030038D01*
X018101Y030131D01*
X018100Y030131D02*
X018100Y061870D01*
X018102Y061964D01*
X018109Y062057D01*
X018120Y062150D01*
X018136Y062243D01*
X018156Y062334D01*
X018180Y062425D01*
X018208Y062514D01*
X018241Y062602D01*
X018278Y062688D01*
X018319Y062772D01*
X018364Y062855D01*
X018413Y062935D01*
X018465Y063012D01*
X018521Y063087D01*
X018581Y063159D01*
X018644Y063229D01*
X018710Y063295D01*
X018780Y063358D01*
X018852Y063418D01*
X018927Y063474D01*
X019004Y063526D01*
X019084Y063575D01*
X019167Y063620D01*
X019251Y063661D01*
X019337Y063698D01*
X019425Y063731D01*
X019514Y063759D01*
X019605Y063783D01*
X019696Y063803D01*
X019789Y063819D01*
X019882Y063830D01*
X019975Y063837D01*
X020069Y063839D01*
X072825Y063839D01*
X072919Y063837D01*
X073012Y063830D01*
X073105Y063819D01*
X073198Y063803D01*
X073289Y063783D01*
X073380Y063759D01*
X073469Y063731D01*
X073557Y063698D01*
X073643Y063661D01*
X073727Y063620D01*
X073809Y063575D01*
X073890Y063526D01*
X073967Y063474D01*
X074042Y063418D01*
X074114Y063358D01*
X074184Y063295D01*
X074250Y063229D01*
X074313Y063159D01*
X074373Y063087D01*
X074429Y063012D01*
X074481Y062935D01*
X074530Y062854D01*
X074575Y062772D01*
X074616Y062688D01*
X074653Y062602D01*
X074686Y062514D01*
X074714Y062425D01*
X074738Y062334D01*
X074758Y062243D01*
X074774Y062150D01*
X074785Y062057D01*
X074792Y061964D01*
X074794Y061870D01*
X074793Y061870D02*
X074793Y018169D01*
X074794Y018169D02*
X074792Y018075D01*
X074785Y017982D01*
X074774Y017889D01*
X074758Y017796D01*
X074738Y017705D01*
X074714Y017614D01*
X074686Y017525D01*
X074653Y017437D01*
X074616Y017351D01*
X074575Y017267D01*
X074530Y017185D01*
X074481Y017104D01*
X074429Y017027D01*
X074373Y016952D01*
X074313Y016880D01*
X074250Y016810D01*
X074184Y016744D01*
X074114Y016681D01*
X074042Y016621D01*
X073967Y016565D01*
X073890Y016513D01*
X073810Y016464D01*
X073727Y016419D01*
X073643Y016378D01*
X073557Y016341D01*
X073469Y016308D01*
X073380Y016280D01*
X073289Y016256D01*
X073198Y016236D01*
X073105Y016220D01*
X073012Y016209D01*
X072919Y016202D01*
X072825Y016200D01*
X072825Y016201D02*
X044127Y016201D01*
X043295Y016016D02*
X012870Y001818D01*
X012807Y001791D01*
X012743Y001767D01*
X012677Y001747D01*
X012610Y001731D01*
X012543Y001720D01*
X012475Y001712D01*
X012406Y001708D01*
X012337Y001707D01*
X012269Y001711D01*
X012201Y001719D01*
X012133Y001731D01*
X012066Y001747D01*
X012000Y001767D01*
X011936Y001790D01*
X011873Y001817D01*
X011811Y001848D01*
X011752Y001882D01*
X011695Y001920D01*
X011639Y001961D01*
X011587Y002005D01*
X011537Y002052D01*
X011490Y002102D01*
X011445Y002154D01*
X011404Y002209D01*
X011367Y002267D01*
X011332Y002326D01*
X011301Y002387D01*
X043294Y016016D02*
X043382Y016055D01*
X043471Y016089D01*
X043562Y016118D01*
X043654Y016143D01*
X043747Y016164D01*
X043841Y016180D01*
X043936Y016192D01*
X044031Y016199D01*
X044127Y016201D01*
D11*
X045531Y059527D02*
X045531Y060348D01*
X045941Y060074D02*
X045531Y059801D01*
X045941Y059527D01*
X046298Y059527D02*
X046708Y059527D01*
X046845Y059664D01*
X046708Y059801D01*
X046435Y059801D01*
X046298Y059937D01*
X046435Y060074D01*
X046845Y060074D01*
X047219Y060074D02*
X047219Y059527D01*
X047219Y059801D02*
X047492Y060074D01*
X047629Y060074D01*
X047986Y060074D02*
X048123Y060074D01*
X048260Y059937D01*
X048396Y060074D01*
X048533Y059937D01*
X048533Y059527D01*
X048260Y059527D02*
X048260Y059937D01*
X047986Y060074D02*
X047986Y059527D01*
D12*
X045691Y053937D03*
X046191Y052937D03*
X043691Y053937D03*
X043191Y052937D03*
X038691Y052437D03*
X038191Y053437D03*
X036191Y053437D03*
X035691Y052437D03*
X031191Y051687D03*
X030691Y052687D03*
X028691Y052687D03*
X028191Y051687D03*
X023691Y051687D03*
X023191Y052687D03*
X021191Y052687D03*
X020691Y051687D03*
X028691Y045187D03*
X028191Y044187D03*
X030691Y045187D03*
X031191Y044187D03*
X035691Y044937D03*
X036191Y045937D03*
X038191Y045937D03*
X038691Y044937D03*
X043191Y045437D03*
X043691Y046437D03*
X045691Y046437D03*
X046191Y045437D03*
X050691Y044937D03*
X051191Y045937D03*
X053191Y045937D03*
X053691Y044937D03*
X058191Y043437D03*
X058691Y044437D03*
X060691Y044437D03*
X061191Y043437D03*
X067691Y043437D03*
X068191Y044437D03*
X070191Y044437D03*
X070691Y043437D03*
X070191Y036937D03*
X070691Y035937D03*
X068191Y036937D03*
X067691Y035937D03*
X061191Y035937D03*
X060691Y036937D03*
X058691Y036937D03*
X058191Y035937D03*
X053691Y037437D03*
X053191Y038437D03*
X051191Y038437D03*
X050691Y037437D03*
X046191Y037937D03*
X045691Y038937D03*
X043691Y038937D03*
X043191Y037937D03*
X038691Y037437D03*
X038191Y038437D03*
X036191Y038437D03*
X035691Y037437D03*
X031191Y036687D03*
X030691Y037687D03*
X028691Y037687D03*
X028191Y036687D03*
X021191Y039933D03*
X020191Y040433D03*
X020191Y042433D03*
X021191Y042933D03*
X021191Y031683D03*
X020191Y031183D03*
X020191Y029183D03*
X021191Y028683D03*
X015086Y024741D03*
X014210Y025436D03*
X012397Y024591D03*
X012367Y023474D03*
X008289Y021572D03*
X007413Y022267D03*
X005600Y021422D03*
X005570Y020305D03*
X010582Y015470D03*
X011458Y014775D03*
X008769Y014625D03*
X008739Y013508D03*
X013752Y008672D03*
X014628Y007977D03*
X011939Y007827D03*
X011909Y006710D03*
X017513Y011254D03*
X018630Y011223D03*
X016667Y013066D03*
X017362Y013942D03*
X023464Y016236D03*
X024159Y017112D03*
X024310Y014424D03*
X025427Y014393D03*
X035691Y022437D03*
X036191Y023437D03*
X038191Y023437D03*
X038691Y022437D03*
X043191Y022937D03*
X043691Y023937D03*
X045691Y023937D03*
X046191Y022937D03*
X050691Y022437D03*
X051191Y023437D03*
X053191Y023437D03*
X053691Y022437D03*
X058191Y020937D03*
X058691Y021937D03*
X060691Y021937D03*
X061191Y020937D03*
X065691Y020937D03*
X066191Y021937D03*
X068191Y021937D03*
X068691Y020937D03*
X067691Y028437D03*
X068191Y029437D03*
X070191Y029437D03*
X070691Y028437D03*
X061191Y028437D03*
X060691Y029437D03*
X058691Y029437D03*
X058191Y028437D03*
X053691Y029937D03*
X053191Y030937D03*
X051191Y030937D03*
X050691Y029937D03*
X046191Y030437D03*
X045691Y031437D03*
X043691Y031437D03*
X043191Y030437D03*
X038691Y029937D03*
X038191Y030937D03*
X036191Y030937D03*
X035691Y029937D03*
X031191Y029187D03*
X030691Y030187D03*
X028691Y030187D03*
X028191Y029187D03*
X050691Y052437D03*
X051191Y053437D03*
X053191Y053437D03*
X053691Y052437D03*
X058191Y050937D03*
X058691Y051937D03*
X060691Y051937D03*
X061191Y050937D03*
X067691Y050937D03*
X068191Y051937D03*
X070191Y051937D03*
X070691Y050937D03*
D13*
X069191Y049937D03*
X069191Y042437D03*
X069191Y034937D03*
X069191Y027437D03*
X067191Y019937D03*
X059691Y019937D03*
X052191Y021437D03*
X059691Y027437D03*
X052191Y028937D03*
X059691Y034937D03*
X052191Y036437D03*
X059691Y042437D03*
X052191Y043937D03*
X059691Y049937D03*
X052191Y051437D03*
X044691Y051937D03*
X037191Y051437D03*
X029691Y050687D03*
X022191Y050687D03*
X029691Y043187D03*
X037191Y043937D03*
X044691Y044437D03*
X044691Y036937D03*
X037191Y036437D03*
X029691Y035687D03*
X022191Y030183D03*
X029691Y028187D03*
X037191Y028937D03*
X044691Y029437D03*
X044691Y021937D03*
X037191Y021437D03*
X025700Y016175D03*
X018903Y013005D03*
X013691Y006437D03*
X010521Y013235D03*
X007352Y020032D03*
X014149Y023201D03*
X022191Y041433D03*
D14*
X011049Y009155D02*
X010614Y008952D01*
X013333Y010220D02*
X013768Y010422D01*
X015598Y015752D02*
X016033Y015955D01*
X018317Y017020D02*
X018752Y017223D01*
X022364Y018952D02*
X022799Y019155D01*
X025083Y020220D02*
X025518Y020422D01*
X018426Y023360D02*
X018223Y023795D01*
X017158Y026079D02*
X016955Y026514D01*
X009955Y023264D02*
X010158Y022829D01*
X011223Y020545D02*
X011426Y020110D01*
X010634Y017039D02*
X010199Y016836D01*
X007916Y015771D02*
X007481Y015569D01*
X027951Y031437D02*
X028431Y031437D01*
X030951Y031437D02*
X031431Y031437D01*
X035451Y032187D02*
X035931Y032187D01*
X038451Y032187D02*
X038931Y032187D01*
X042951Y032687D02*
X043431Y032687D01*
X045951Y032687D02*
X046431Y032687D01*
X050451Y032187D02*
X050931Y032187D01*
X053451Y032187D02*
X053931Y032187D01*
X057951Y030687D02*
X058431Y030687D01*
X060951Y030687D02*
X061431Y030687D01*
X067451Y030687D02*
X067931Y030687D01*
X070451Y030687D02*
X070931Y030687D01*
X070931Y038187D02*
X070451Y038187D01*
X067931Y038187D02*
X067451Y038187D01*
X061431Y038187D02*
X060951Y038187D01*
X058431Y038187D02*
X057951Y038187D01*
X053931Y039687D02*
X053451Y039687D01*
X050931Y039687D02*
X050451Y039687D01*
X046431Y040187D02*
X045951Y040187D01*
X043431Y040187D02*
X042951Y040187D01*
X038931Y039687D02*
X038451Y039687D01*
X035931Y039687D02*
X035451Y039687D01*
X031431Y038937D02*
X030951Y038937D01*
X028431Y038937D02*
X027951Y038937D01*
X023931Y033937D02*
X023451Y033937D01*
X020931Y033937D02*
X020451Y033937D01*
X020451Y045187D02*
X020931Y045187D01*
X023451Y045187D02*
X023931Y045187D01*
X027951Y046437D02*
X028431Y046437D01*
X030951Y046437D02*
X031431Y046437D01*
X035451Y047187D02*
X035931Y047187D01*
X038451Y047187D02*
X038931Y047187D01*
X042951Y047687D02*
X043431Y047687D01*
X045951Y047687D02*
X046431Y047687D01*
X050451Y047187D02*
X050931Y047187D01*
X053451Y047187D02*
X053931Y047187D01*
X057951Y045687D02*
X058431Y045687D01*
X060951Y045687D02*
X061431Y045687D01*
X067451Y045687D02*
X067931Y045687D01*
X070451Y045687D02*
X070931Y045687D01*
X070931Y053187D02*
X070451Y053187D01*
X067931Y053187D02*
X067451Y053187D01*
X061431Y053187D02*
X060951Y053187D01*
X058431Y053187D02*
X057951Y053187D01*
X053931Y054687D02*
X053451Y054687D01*
X050931Y054687D02*
X050451Y054687D01*
X046431Y055187D02*
X045951Y055187D01*
X043431Y055187D02*
X042951Y055187D01*
X038931Y054687D02*
X038451Y054687D01*
X035931Y054687D02*
X035451Y054687D01*
X031431Y053937D02*
X030951Y053937D01*
X028431Y053937D02*
X027951Y053937D01*
X023931Y053937D02*
X023451Y053937D01*
X020931Y053937D02*
X020451Y053937D01*
X042951Y025187D02*
X043431Y025187D01*
X045951Y025187D02*
X046431Y025187D01*
X050451Y024687D02*
X050931Y024687D01*
X053451Y024687D02*
X053931Y024687D01*
X057951Y023187D02*
X058431Y023187D01*
X060951Y023187D02*
X061431Y023187D01*
X065451Y023187D02*
X065931Y023187D01*
X068451Y023187D02*
X068931Y023187D01*
X038931Y024687D02*
X038451Y024687D01*
X035931Y024687D02*
X035451Y024687D01*
D15*
X036691Y059937D03*
X039591Y059937D03*
X022691Y059937D03*
X019791Y059937D03*
D16*
G36*
X054601Y060118D02*
X054142Y060577D01*
X054323Y060758D01*
X054782Y060299D01*
X054601Y060118D01*
G37*
G36*
X054824Y060341D02*
X054365Y060800D01*
X054546Y060981D01*
X055005Y060522D01*
X054824Y060341D01*
G37*
G36*
X055047Y060564D02*
X054588Y061023D01*
X054769Y061204D01*
X055228Y060745D01*
X055047Y060564D01*
G37*
G36*
X055270Y060786D02*
X054811Y061245D01*
X054992Y061426D01*
X055451Y060967D01*
X055270Y060786D01*
G37*
G36*
X055492Y061009D02*
X055033Y061468D01*
X055214Y061649D01*
X055673Y061190D01*
X055492Y061009D01*
G37*
G36*
X055715Y061232D02*
X055256Y061691D01*
X055437Y061872D01*
X055896Y061413D01*
X055715Y061232D01*
G37*
G36*
X055938Y061455D02*
X055479Y061914D01*
X055660Y062095D01*
X056119Y061636D01*
X055938Y061455D01*
G37*
G36*
X056160Y061677D02*
X055701Y062136D01*
X055882Y062317D01*
X056341Y061858D01*
X056160Y061677D01*
G37*
G36*
X056383Y061900D02*
X055924Y062359D01*
X056105Y062540D01*
X056564Y062081D01*
X056383Y061900D01*
G37*
G36*
X056606Y062123D02*
X056147Y062582D01*
X056328Y062763D01*
X056787Y062304D01*
X056606Y062123D01*
G37*
G36*
X056829Y062345D02*
X056370Y062804D01*
X056551Y062985D01*
X057010Y062526D01*
X056829Y062345D01*
G37*
G36*
X060058Y059116D02*
X059599Y059575D01*
X059780Y059756D01*
X060239Y059297D01*
X060058Y059116D01*
G37*
G36*
X059835Y058893D02*
X059376Y059352D01*
X059557Y059533D01*
X060016Y059074D01*
X059835Y058893D01*
G37*
G36*
X059612Y058671D02*
X059153Y059130D01*
X059334Y059311D01*
X059793Y058852D01*
X059612Y058671D01*
G37*
G36*
X059390Y058448D02*
X058931Y058907D01*
X059112Y059088D01*
X059571Y058629D01*
X059390Y058448D01*
G37*
G36*
X059167Y058225D02*
X058708Y058684D01*
X058889Y058865D01*
X059348Y058406D01*
X059167Y058225D01*
G37*
G36*
X058944Y058002D02*
X058485Y058461D01*
X058666Y058642D01*
X059125Y058183D01*
X058944Y058002D01*
G37*
G36*
X058722Y057780D02*
X058263Y058239D01*
X058444Y058420D01*
X058903Y057961D01*
X058722Y057780D01*
G37*
G36*
X058499Y057557D02*
X058040Y058016D01*
X058221Y058197D01*
X058680Y057738D01*
X058499Y057557D01*
G37*
G36*
X058276Y057334D02*
X057817Y057793D01*
X057998Y057974D01*
X058457Y057515D01*
X058276Y057334D01*
G37*
G36*
X058053Y057112D02*
X057594Y057571D01*
X057775Y057752D01*
X058234Y057293D01*
X058053Y057112D01*
G37*
G36*
X057831Y056889D02*
X057372Y057348D01*
X057553Y057529D01*
X058012Y057070D01*
X057831Y056889D01*
G37*
D17*
G36*
X056551Y056889D02*
X056370Y057070D01*
X056829Y057529D01*
X057010Y057348D01*
X056551Y056889D01*
G37*
G36*
X056328Y057112D02*
X056147Y057293D01*
X056606Y057752D01*
X056787Y057571D01*
X056328Y057112D01*
G37*
G36*
X056105Y057334D02*
X055924Y057515D01*
X056383Y057974D01*
X056564Y057793D01*
X056105Y057334D01*
G37*
G36*
X055882Y057557D02*
X055701Y057738D01*
X056160Y058197D01*
X056341Y058016D01*
X055882Y057557D01*
G37*
G36*
X055660Y057780D02*
X055479Y057961D01*
X055938Y058420D01*
X056119Y058239D01*
X055660Y057780D01*
G37*
G36*
X055437Y058002D02*
X055256Y058183D01*
X055715Y058642D01*
X055896Y058461D01*
X055437Y058002D01*
G37*
G36*
X055214Y058225D02*
X055033Y058406D01*
X055492Y058865D01*
X055673Y058684D01*
X055214Y058225D01*
G37*
G36*
X054992Y058448D02*
X054811Y058629D01*
X055270Y059088D01*
X055451Y058907D01*
X054992Y058448D01*
G37*
G36*
X054769Y058671D02*
X054588Y058852D01*
X055047Y059311D01*
X055228Y059130D01*
X054769Y058671D01*
G37*
G36*
X054546Y058893D02*
X054365Y059074D01*
X054824Y059533D01*
X055005Y059352D01*
X054546Y058893D01*
G37*
G36*
X054323Y059116D02*
X054142Y059297D01*
X054601Y059756D01*
X054782Y059575D01*
X054323Y059116D01*
G37*
G36*
X057553Y062345D02*
X057372Y062526D01*
X057831Y062985D01*
X058012Y062804D01*
X057553Y062345D01*
G37*
G36*
X057775Y062123D02*
X057594Y062304D01*
X058053Y062763D01*
X058234Y062582D01*
X057775Y062123D01*
G37*
G36*
X057998Y061900D02*
X057817Y062081D01*
X058276Y062540D01*
X058457Y062359D01*
X057998Y061900D01*
G37*
G36*
X058221Y061677D02*
X058040Y061858D01*
X058499Y062317D01*
X058680Y062136D01*
X058221Y061677D01*
G37*
G36*
X058444Y061455D02*
X058263Y061636D01*
X058722Y062095D01*
X058903Y061914D01*
X058444Y061455D01*
G37*
G36*
X058666Y061232D02*
X058485Y061413D01*
X058944Y061872D01*
X059125Y061691D01*
X058666Y061232D01*
G37*
G36*
X058889Y061009D02*
X058708Y061190D01*
X059167Y061649D01*
X059348Y061468D01*
X058889Y061009D01*
G37*
G36*
X059112Y060786D02*
X058931Y060967D01*
X059390Y061426D01*
X059571Y061245D01*
X059112Y060786D01*
G37*
G36*
X059334Y060564D02*
X059153Y060745D01*
X059612Y061204D01*
X059793Y061023D01*
X059334Y060564D01*
G37*
G36*
X059557Y060341D02*
X059376Y060522D01*
X059835Y060981D01*
X060016Y060800D01*
X059557Y060341D01*
G37*
G36*
X059780Y060118D02*
X059599Y060299D01*
X060058Y060758D01*
X060239Y060577D01*
X059780Y060118D01*
G37*
D18*
X053134Y056937D03*
X049748Y056937D03*
D19*
X048441Y056291D03*
X048441Y055583D03*
X043691Y057333D03*
X043691Y058041D03*
X054441Y056291D03*
X054441Y055583D03*
D20*
X052441Y061937D03*
X051441Y061937D03*
X051441Y062937D03*
X050441Y062937D03*
X050441Y061937D03*
X062941Y061437D03*
X063941Y061437D03*
X063941Y060437D03*
X062941Y060437D03*
X062941Y059437D03*
X063941Y059437D03*
X063941Y062437D03*
X062941Y062437D03*
D21*
X043315Y060179D03*
X042941Y060179D03*
X042567Y060179D03*
X042567Y059195D03*
X042941Y059195D03*
X043315Y059195D03*
D22*
X044191Y059136D03*
X044191Y060238D03*
D23*
X043443Y062077D03*
X042458Y062077D03*
X041474Y062077D03*
D24*
X040884Y063160D02*
X040886Y063186D01*
X040892Y063212D01*
X040902Y063237D01*
X040915Y063260D01*
X040931Y063280D01*
X040951Y063298D01*
X040973Y063313D01*
X040996Y063325D01*
X041022Y063333D01*
X041048Y063337D01*
X041074Y063337D01*
X041100Y063333D01*
X041126Y063325D01*
X041150Y063313D01*
X041171Y063298D01*
X041191Y063280D01*
X041207Y063260D01*
X041220Y063237D01*
X041230Y063212D01*
X041236Y063186D01*
X041238Y063160D01*
X041236Y063134D01*
X041230Y063108D01*
X041220Y063083D01*
X041207Y063060D01*
X041191Y063040D01*
X041171Y063022D01*
X041149Y063007D01*
X041126Y062995D01*
X041100Y062987D01*
X041074Y062983D01*
X041048Y062983D01*
X041022Y062987D01*
X040996Y062995D01*
X040972Y063007D01*
X040951Y063022D01*
X040931Y063040D01*
X040915Y063060D01*
X040902Y063083D01*
X040892Y063108D01*
X040886Y063134D01*
X040884Y063160D01*
X043679Y063160D02*
X043681Y063186D01*
X043687Y063212D01*
X043697Y063237D01*
X043710Y063260D01*
X043726Y063280D01*
X043746Y063298D01*
X043768Y063313D01*
X043791Y063325D01*
X043817Y063333D01*
X043843Y063337D01*
X043869Y063337D01*
X043895Y063333D01*
X043921Y063325D01*
X043945Y063313D01*
X043966Y063298D01*
X043986Y063280D01*
X044002Y063260D01*
X044015Y063237D01*
X044025Y063212D01*
X044031Y063186D01*
X044033Y063160D01*
X044031Y063134D01*
X044025Y063108D01*
X044015Y063083D01*
X044002Y063060D01*
X043986Y063040D01*
X043966Y063022D01*
X043944Y063007D01*
X043921Y062995D01*
X043895Y062987D01*
X043869Y062983D01*
X043843Y062983D01*
X043817Y062987D01*
X043791Y062995D01*
X043767Y063007D01*
X043746Y063022D01*
X043726Y063040D01*
X043710Y063060D01*
X043697Y063083D01*
X043687Y063108D01*
X043681Y063134D01*
X043679Y063160D01*
D25*
X043856Y063160D03*
X041061Y063160D03*
D26*
X052441Y062937D03*
D27*
X049025Y061687D03*
X048356Y061687D03*
X042775Y058437D03*
X042106Y058437D03*
X042025Y055187D03*
X041356Y055187D03*
X034525Y054687D03*
X033856Y054687D03*
X027025Y053937D03*
X026356Y053937D03*
X024275Y055187D03*
X023606Y055187D03*
X048856Y054687D03*
X049525Y054687D03*
X056356Y053187D03*
X057025Y053187D03*
D28*
X067691Y054103D03*
X067691Y054772D03*
X041691Y059353D03*
X041691Y060022D03*
X019191Y056272D03*
X019191Y055603D03*
D29*
X043299Y061150D03*
X044008Y061150D03*
D30*
X048100Y062740D03*
X049281Y062740D03*
D31*
X070191Y056237D02*
X070191Y055637D01*
X071191Y055637D02*
X071191Y056237D01*
X072191Y056237D02*
X072191Y055637D01*
D32*
X045441Y060937D03*
X044941Y061937D03*
X045191Y057687D03*
D33*
X048691Y062437D03*
X049941Y062437D03*
X052691Y060937D03*
X053691Y060937D03*
X054691Y061937D03*
X055191Y062687D03*
X053191Y062937D03*
X053941Y059437D03*
X056691Y058937D03*
X057191Y058437D03*
X057941Y060687D03*
X058941Y062687D03*
X060941Y060187D03*
X059441Y057437D03*
X059941Y057187D03*
X060441Y056937D03*
X061191Y055687D03*
X061191Y054687D03*
X059191Y055687D03*
X055941Y055687D03*
X055441Y055437D03*
X054941Y055187D03*
X051191Y057687D03*
X044691Y062937D03*
X062941Y049687D03*
X065941Y049687D03*
X065941Y042687D03*
X063441Y042687D03*
X063941Y035687D03*
X065941Y035687D03*
X065941Y028687D03*
X064441Y028687D03*
X048441Y029187D03*
X064691Y061937D03*
M02*
